<svg xmlns="http://www.w3.org/2000/svg" viewBox="0 0 800 520" width="800" height="520">
  <defs>
    <linearGradient id="bg" x1="0" y1="0" x2="1" y2="1">
      <stop offset="0%" stop-color="#0b132e"/>
      <stop offset="100%" stop-color="#0f172a"/>
    </linearGradient>
    <linearGradient id="route" x1="0" y1="0" x2="1" y2="0">
      <stop offset="0%" stop-color="#0ea5a3"/>
      <stop offset="100%" stop-color="#34d399"/>
    </linearGradient>
  </defs>
  <rect width="100%" height="100%" fill="url(#bg)"/>
  <g opacity="0.25" stroke="#9db3d8" stroke-width="1">
    <path d="M0 80 H800 M0 160 H800 M0 240 H800 M0 320 H800 M0 400 H800" />
    <path d="M80 0 V520 M160 0 V520 M240 0 V520 M320 0 V520 M400 0 V520 M480 0 V520 M560 0 V520 M640 0 V520 M720 0 V520"/>
  </g>
  <g stroke="url(#route)" stroke-width="6" fill="none" stroke-linecap="round">
    <path d="M120 420 Q 200 360, 260 340 T 400 280 Q 520 220, 680 180"/>
  </g>
  <g fill="#f59e0b">
    <circle cx="120" cy="420" r="8"/>
    <circle cx="260" cy="340" r="8"/>
    <circle cx="400" cy="280" r="8"/>
    <circle cx="680" cy="180" r="8"/>
  </g>
  <g>
    <rect x="540" y="52" width="220" height="120" rx="12" fill="#0b132e" stroke="#20304f"/>
    <text x="552" y="84" fill="#9db3d8" font-family="Segoe UI, Arial" font-size="16">Zonas seguras</text>
    <text x="552" y="110" fill="#e6f1ff" font-family="Segoe UI, Arial" font-weight="600" font-size="20">GDL Centro Histórico</text>
    <text x="552" y="136" fill="#9db3d8" font-family="Segoe UI, Arial" font-size="14">Afluencia: media · Horario óptimo: 17:00–21:00</text>
  </g>
</svg>